<?xml version="1.0" encoding="UTF-8"?>
<svg xmlns="http://www.w3.org/2000/svg" xmlns:xlink="http://www.w3.org/1999/xlink" width="282.162pt" height="123.072pt" viewBox="0 0 282.162 123.072">
<defs>
<g>
<g id="glyph-0-0">
<path d="M 1.71875 -0.734375 C 1.65625 -0.5 1.421875 -0.125 1.078125 -0.125 C 1.046875 -0.125 0.84375 -0.125 0.703125 -0.21875 C 0.984375 -0.3125 1 -0.5625 1 -0.609375 C 1 -0.75 0.890625 -0.859375 0.734375 -0.859375 C 0.53125 -0.859375 0.328125 -0.6875 0.328125 -0.4375 C 0.328125 -0.09375 0.71875 0.0625 1.0625 0.0625 C 1.375 0.0625 1.65625 -0.125 1.828125 -0.421875 C 2 -0.0625 2.375 0.0625 2.65625 0.0625 C 3.453125 0.0625 3.875 -0.796875 3.875 -0.984375 C 3.875 -1.078125 3.78125 -1.078125 3.765625 -1.078125 C 3.671875 -1.078125 3.65625 -1.046875 3.640625 -0.96875 C 3.484375 -0.484375 3.078125 -0.125 2.6875 -0.125 C 2.40625 -0.125 2.265625 -0.3125 2.265625 -0.578125 C 2.265625 -0.75 2.421875 -1.390625 2.625 -2.15625 C 2.765625 -2.6875 3.078125 -2.859375 3.296875 -2.859375 C 3.3125 -2.859375 3.53125 -2.859375 3.671875 -2.765625 C 3.453125 -2.703125 3.375 -2.5 3.375 -2.375 C 3.375 -2.234375 3.484375 -2.125 3.640625 -2.125 C 3.8125 -2.125 4.03125 -2.25 4.03125 -2.546875 C 4.03125 -2.9375 3.59375 -3.046875 3.3125 -3.046875 C 2.96875 -3.046875 2.6875 -2.828125 2.546875 -2.5625 C 2.421875 -2.84375 2.09375 -3.046875 1.703125 -3.046875 C 0.9375 -3.046875 0.484375 -2.203125 0.484375 -2 C 0.484375 -1.90625 0.59375 -1.90625 0.609375 -1.90625 C 0.703125 -1.90625 0.703125 -1.9375 0.734375 -2.015625 C 0.90625 -2.5625 1.34375 -2.859375 1.6875 -2.859375 C 1.921875 -2.859375 2.109375 -2.734375 2.109375 -2.40625 C 2.109375 -2.265625 2.015625 -1.921875 1.953125 -1.6875 Z M 1.71875 -0.734375 "/>
</g>
<g id="glyph-0-1">
<path d="M 1.453125 -0.109375 C 1.453125 0.265625 1.390625 0.71875 0.921875 1.15625 C 0.890625 1.1875 0.875 1.203125 0.875 1.234375 C 0.875 1.28125 0.921875 1.328125 0.96875 1.328125 C 1.0625 1.328125 1.65625 0.78125 1.65625 -0.046875 C 1.65625 -0.46875 1.484375 -0.796875 1.171875 -0.796875 C 0.9375 -0.796875 0.78125 -0.609375 0.78125 -0.40625 C 0.78125 -0.1875 0.9375 0 1.171875 0 C 1.34375 0 1.453125 -0.109375 1.453125 -0.109375 Z M 1.453125 -0.109375 "/>
</g>
<g id="glyph-1-0">
<path d="M 1.96875 -3.140625 C 1.96875 -3.28125 1.953125 -3.28125 1.78125 -3.28125 C 1.4375 -2.96875 0.890625 -2.96875 0.796875 -2.96875 L 0.703125 -2.96875 L 0.703125 -2.75 L 0.796875 -2.75 C 0.90625 -2.75 1.21875 -2.765625 1.515625 -2.890625 L 1.515625 -0.421875 C 1.515625 -0.265625 1.515625 -0.21875 0.984375 -0.21875 L 0.734375 -0.21875 L 0.734375 0 C 1.015625 -0.015625 1.453125 -0.015625 1.734375 -0.015625 C 2.03125 -0.015625 2.46875 -0.015625 2.734375 0 L 2.734375 -0.21875 L 2.484375 -0.21875 C 1.96875 -0.21875 1.96875 -0.265625 1.96875 -0.421875 Z M 1.96875 -3.140625 "/>
</g>
<g id="glyph-1-1">
<path d="M 2.90625 -0.953125 L 2.703125 -0.953125 C 2.6875 -0.859375 2.640625 -0.546875 2.5625 -0.5 C 2.515625 -0.46875 2.109375 -0.46875 2.03125 -0.46875 L 1.0625 -0.46875 C 1.390625 -0.71875 1.75 -1 2.046875 -1.1875 C 2.5 -1.5 2.90625 -1.78125 2.90625 -2.3125 C 2.90625 -2.9375 2.3125 -3.28125 1.609375 -3.28125 C 0.9375 -3.28125 0.453125 -2.90625 0.453125 -2.421875 C 0.453125 -2.15625 0.671875 -2.125 0.734375 -2.125 C 0.875 -2.125 1.03125 -2.203125 1.03125 -2.40625 C 1.03125 -2.59375 0.90625 -2.6875 0.75 -2.703125 C 0.890625 -2.921875 1.171875 -3.078125 1.5 -3.078125 C 1.984375 -3.078125 2.375 -2.78125 2.375 -2.296875 C 2.375 -1.890625 2.09375 -1.5625 1.71875 -1.25 L 0.515625 -0.234375 C 0.453125 -0.1875 0.453125 -0.1875 0.453125 -0.140625 L 0.453125 0 L 2.75 0 Z M 2.90625 -0.953125 "/>
</g>
<g id="glyph-2-0">
<path d="M 2.3125 -4.40625 C 2.3125 -4.59375 2.3125 -4.59375 2.109375 -4.59375 C 1.671875 -4.15625 1.03125 -4.15625 0.75 -4.15625 L 0.75 -3.90625 C 0.921875 -3.90625 1.375 -3.90625 1.765625 -4.09375 L 1.765625 -0.5625 C 1.765625 -0.34375 1.765625 -0.25 1.0625 -0.25 L 0.796875 -0.25 L 0.796875 0 C 0.921875 0 1.78125 -0.03125 2.03125 -0.03125 C 2.25 -0.03125 3.125 0 3.28125 0 L 3.28125 -0.25 L 3.015625 -0.25 C 2.3125 -0.25 2.3125 -0.34375 2.3125 -0.5625 Z M 2.3125 -4.40625 "/>
</g>
<g id="glyph-2-1">
<path d="M 5.3125 -2.328125 C 5.421875 -2.328125 5.578125 -2.328125 5.578125 -2.5 C 5.578125 -2.671875 5.40625 -2.671875 5.328125 -2.671875 L 0.734375 -2.671875 C 0.65625 -2.671875 0.484375 -2.671875 0.484375 -2.5 C 0.484375 -2.328125 0.640625 -2.328125 0.75 -2.328125 Z M 5.328125 -0.796875 C 5.40625 -0.796875 5.578125 -0.796875 5.578125 -0.96875 C 5.578125 -1.140625 5.421875 -1.140625 5.3125 -1.140625 L 0.75 -1.140625 C 0.640625 -1.140625 0.484375 -1.140625 0.484375 -0.96875 C 0.484375 -0.796875 0.65625 -0.796875 0.734375 -0.796875 Z M 5.328125 -0.796875 "/>
</g>
<g id="glyph-2-2">
<path d="M 3.203125 -1.5625 L 5.328125 -1.5625 C 5.40625 -1.5625 5.578125 -1.5625 5.578125 -1.734375 C 5.578125 -1.90625 5.421875 -1.90625 5.328125 -1.90625 L 3.203125 -1.90625 L 3.203125 -4.03125 C 3.203125 -4.125 3.203125 -4.28125 3.03125 -4.28125 C 2.859375 -4.28125 2.859375 -4.125 2.859375 -4.03125 L 2.859375 -1.90625 L 0.734375 -1.90625 C 0.65625 -1.90625 0.484375 -1.90625 0.484375 -1.734375 C 0.484375 -1.5625 0.640625 -1.5625 0.734375 -1.5625 L 2.859375 -1.5625 L 2.859375 0.5625 C 2.859375 0.65625 2.859375 0.8125 3.03125 0.8125 C 3.203125 0.8125 3.203125 0.65625 3.203125 0.5625 Z M 3.203125 -1.5625 "/>
</g>
<g id="glyph-2-3">
<path d="M 5.6875 -2.09375 C 5.6875 -2.703125 5.390625 -3.046875 4.65625 -3.046875 C 4.109375 -3.046875 3.734375 -2.75 3.546875 -2.40625 C 3.40625 -2.90625 3.03125 -3.046875 2.53125 -3.046875 C 1.953125 -3.046875 1.59375 -2.734375 1.390625 -2.375 L 1.390625 -3.046875 L 0.375 -2.96875 L 0.375 -2.734375 C 0.84375 -2.734375 0.890625 -2.671875 0.890625 -2.34375 L 0.890625 -0.546875 C 0.890625 -0.25 0.828125 -0.25 0.375 -0.25 L 0.375 0 C 0.390625 0 0.875 -0.03125 1.15625 -0.03125 C 1.421875 -0.03125 1.890625 0 1.953125 0 L 1.953125 -0.25 C 1.515625 -0.25 1.4375 -0.25 1.4375 -0.546875 L 1.4375 -1.796875 C 1.4375 -2.515625 2.015625 -2.859375 2.46875 -2.859375 C 2.953125 -2.859375 3.015625 -2.484375 3.015625 -2.125 L 3.015625 -0.546875 C 3.015625 -0.25 2.953125 -0.25 2.5 -0.25 L 2.5 0 C 2.515625 0 3 -0.03125 3.28125 -0.03125 C 3.546875 -0.03125 4.015625 0 4.078125 0 L 4.078125 -0.25 C 3.640625 -0.25 3.5625 -0.25 3.5625 -0.546875 L 3.5625 -1.796875 C 3.5625 -2.515625 4.140625 -2.859375 4.59375 -2.859375 C 5.078125 -2.859375 5.140625 -2.484375 5.140625 -2.125 L 5.140625 -0.546875 C 5.140625 -0.25 5.078125 -0.25 4.625 -0.25 L 4.625 0 C 4.640625 0 5.125 -0.03125 5.40625 -0.03125 C 5.671875 -0.03125 6.140625 0 6.203125 0 L 6.203125 -0.25 C 5.765625 -0.25 5.6875 -0.25 5.6875 -0.546875 Z M 5.6875 -2.09375 "/>
</g>
<g id="glyph-2-4">
<path d="M 3.09375 -1.859375 C 3.09375 -2.21875 3.09375 -2.484375 2.765625 -2.734375 C 2.484375 -2.96875 2.15625 -3.09375 1.75 -3.09375 C 1.09375 -3.09375 0.625 -2.84375 0.625 -2.421875 C 0.625 -2.1875 0.78125 -2.078125 0.953125 -2.078125 C 1.140625 -2.078125 1.28125 -2.21875 1.28125 -2.40625 C 1.28125 -2.515625 1.21875 -2.671875 1.03125 -2.71875 C 1.28125 -2.890625 1.6875 -2.890625 1.734375 -2.890625 C 2.125 -2.890625 2.546875 -2.640625 2.546875 -2.0625 L 2.546875 -1.84375 C 2.15625 -1.828125 1.703125 -1.8125 1.203125 -1.625 C 0.578125 -1.390625 0.375 -1.015625 0.375 -0.703125 C 0.375 -0.109375 1.09375 0.0625 1.59375 0.0625 C 2.140625 0.0625 2.46875 -0.25 2.609375 -0.515625 C 2.640625 -0.234375 2.828125 0.03125 3.15625 0.03125 C 3.15625 0.03125 3.828125 0.03125 3.828125 -0.625 L 3.828125 -1 L 3.59375 -1 L 3.59375 -0.625 C 3.59375 -0.5625 3.59375 -0.234375 3.34375 -0.234375 C 3.09375 -0.234375 3.09375 -0.546875 3.09375 -0.640625 Z M 2.546875 -0.96875 C 2.546875 -0.3125 1.953125 -0.125 1.640625 -0.125 C 1.296875 -0.125 0.96875 -0.359375 0.96875 -0.703125 C 0.96875 -1.078125 1.296875 -1.609375 2.546875 -1.65625 Z M 2.546875 -0.96875 "/>
</g>
<g id="glyph-2-5">
<path d="M 2.34375 -1.546875 C 2.34375 -1.5625 2.296875 -1.609375 2.296875 -1.625 C 2.296875 -1.640625 2.75 -2.125 2.8125 -2.1875 C 3.046875 -2.46875 3.296875 -2.734375 3.84375 -2.734375 L 3.84375 -2.984375 C 3.640625 -2.96875 3.453125 -2.953125 3.265625 -2.953125 C 3.046875 -2.953125 2.78125 -2.96875 2.578125 -2.984375 L 2.578125 -2.734375 C 2.6875 -2.71875 2.71875 -2.640625 2.71875 -2.578125 C 2.71875 -2.5625 2.71875 -2.453125 2.609375 -2.34375 L 2.125 -1.796875 L 1.546875 -2.453125 C 1.484375 -2.53125 1.46875 -2.5625 1.46875 -2.59375 C 1.46875 -2.6875 1.578125 -2.734375 1.65625 -2.734375 L 1.65625 -2.984375 C 1.40625 -2.96875 1.140625 -2.953125 0.890625 -2.953125 C 0.671875 -2.953125 0.421875 -2.96875 0.21875 -2.984375 L 0.21875 -2.734375 C 0.53125 -2.734375 0.71875 -2.734375 0.890625 -2.53125 L 1.765625 -1.53125 C 1.765625 -1.515625 1.8125 -1.46875 1.8125 -1.453125 C 1.8125 -1.4375 1.296875 -0.875 1.21875 -0.796875 C 0.96875 -0.515625 0.734375 -0.265625 0.1875 -0.25 L 0.1875 0 C 0.390625 -0.015625 0.546875 -0.03125 0.75 -0.03125 C 0.96875 -0.03125 1.234375 -0.015625 1.453125 0 L 1.453125 -0.25 C 1.359375 -0.265625 1.3125 -0.3125 1.3125 -0.40625 C 1.3125 -0.546875 1.390625 -0.625 1.5 -0.75 L 1.984375 -1.28125 L 2.578125 -0.59375 C 2.71875 -0.453125 2.71875 -0.4375 2.71875 -0.390625 C 2.71875 -0.25 2.546875 -0.25 2.53125 -0.25 L 2.53125 0 C 2.59375 0 3.09375 -0.03125 3.3125 -0.03125 C 3.53125 -0.03125 3.75 -0.015625 3.96875 0 L 3.96875 -0.25 C 3.515625 -0.25 3.453125 -0.296875 3.296875 -0.46875 Z M 2.34375 -1.546875 "/>
</g>
<g id="glyph-2-6">
<path d="M 2.453125 -5.1875 C 1.140625 -4.265625 0.796875 -2.796875 0.796875 -1.734375 C 0.796875 -0.765625 1.09375 0.75 2.453125 1.71875 C 2.515625 1.71875 2.59375 1.71875 2.59375 1.640625 C 2.59375 1.59375 2.578125 1.578125 2.53125 1.53125 C 1.609375 0.703125 1.265625 -0.46875 1.265625 -1.734375 C 1.265625 -3.59375 1.984375 -4.515625 2.546875 -5.03125 C 2.578125 -5.046875 2.59375 -5.078125 2.59375 -5.109375 C 2.59375 -5.1875 2.515625 -5.1875 2.453125 -5.1875 Z M 2.453125 -5.1875 "/>
</g>
<g id="glyph-2-7">
<path d="M 0.625 -5.1875 C 0.578125 -5.1875 0.484375 -5.1875 0.484375 -5.109375 C 0.484375 -5.078125 0.515625 -5.046875 0.546875 -5 C 1.15625 -4.453125 1.8125 -3.515625 1.8125 -1.734375 C 1.8125 -0.296875 1.359375 0.796875 0.609375 1.484375 C 0.5 1.59375 0.484375 1.609375 0.484375 1.640625 C 0.484375 1.671875 0.515625 1.71875 0.578125 1.71875 C 0.671875 1.71875 1.328125 1.265625 1.78125 0.40625 C 2.078125 -0.171875 2.28125 -0.921875 2.28125 -1.734375 C 2.28125 -2.703125 2 -4.21875 0.625 -5.1875 Z M 0.625 -5.1875 "/>
</g>
<g id="glyph-3-0">
<path d="M 1.421875 -4.921875 C 1.421875 -5.03125 1.421875 -5.1875 1.265625 -5.1875 C 1.09375 -5.1875 1.09375 -5.015625 1.09375 -4.890625 L 1.09375 1.421875 C 1.09375 1.546875 1.09375 1.71875 1.265625 1.71875 C 1.421875 1.71875 1.421875 1.5625 1.421875 1.453125 Z M 2.953125 -4.890625 C 2.953125 -5.015625 2.953125 -5.1875 2.78125 -5.1875 C 2.609375 -5.1875 2.609375 -5.03125 2.609375 -4.921875 L 2.609375 1.453125 C 2.609375 1.5625 2.609375 1.71875 2.78125 1.71875 C 2.953125 1.71875 2.953125 1.546875 2.953125 1.421875 Z M 2.953125 -4.890625 "/>
</g>
<g id="glyph-3-1">
<path d="M 1.34375 -4.921875 C 1.34375 -5.03125 1.34375 -5.1875 1.171875 -5.1875 C 1 -5.1875 1 -5.03125 1 -4.921875 L 1 1.453125 C 1 1.5625 1 1.734375 1.171875 1.734375 C 1.34375 1.734375 1.34375 1.578125 1.34375 1.453125 Z M 1.34375 -4.921875 "/>
</g>
<g id="glyph-3-2">
<path d="M 5.28125 -4.390625 C 5.359375 -4.4375 5.421875 -4.484375 5.421875 -4.5625 C 5.421875 -4.671875 5.34375 -4.734375 5.25 -4.734375 C 5.25 -4.734375 5.21875 -4.734375 5.125 -4.703125 L 0.90625 -2.671875 C 0.796875 -2.609375 0.75 -2.5625 0.75 -2.484375 C 0.75 -2.40625 0.796875 -2.359375 0.90625 -2.296875 L 5.109375 -0.28125 C 5.21875 -0.234375 5.234375 -0.234375 5.25 -0.234375 C 5.359375 -0.234375 5.421875 -0.3125 5.421875 -0.390625 C 5.421875 -0.5 5.34375 -0.546875 5.28125 -0.578125 L 1.3125 -2.484375 Z M 5.15625 1.296875 C 5.265625 1.296875 5.421875 1.296875 5.421875 1.125 C 5.421875 0.953125 5.265625 0.953125 5.15625 0.953125 L 1.03125 0.953125 C 0.90625 0.953125 0.75 0.953125 0.75 1.125 C 0.75 1.296875 0.90625 1.296875 1.03125 1.296875 Z M 5.15625 1.296875 "/>
</g>
<g id="glyph-4-0">
<path d="M 2.734375 -1.671875 L 3.6875 -2.640625 C 3.859375 -2.6875 4.03125 -2.6875 4.328125 -2.6875 L 4.328125 -3.078125 C 4.109375 -3.046875 3.890625 -3.046875 3.65625 -3.046875 C 3.421875 -3.046875 2.953125 -3.0625 2.890625 -3.078125 L 2.890625 -2.6875 C 2.984375 -2.6875 3.03125 -2.671875 3.078125 -2.640625 L 2.421875 -1.984375 L 1.765625 -2.6875 L 1.9375 -2.6875 L 1.9375 -3.078125 C 1.90625 -3.078125 1.359375 -3.046875 1.0625 -3.046875 C 0.796875 -3.046875 0.546875 -3.046875 0.28125 -3.078125 L 0.28125 -2.6875 L 0.796875 -2.6875 L 1.9375 -1.5 L 0.9375 -0.5 C 0.84375 -0.421875 0.84375 -0.40625 0.625 -0.390625 C 0.515625 -0.390625 0.28125 -0.390625 0.25 -0.390625 L 0.25 0 C 0.46875 -0.015625 0.6875 -0.03125 0.90625 -0.03125 C 1.09375 -0.03125 1.59375 0 1.6875 0 L 1.6875 -0.390625 C 1.578125 -0.390625 1.546875 -0.40625 1.5 -0.4375 L 2.25 -1.1875 L 3.015625 -0.390625 L 2.828125 -0.390625 L 2.828125 0 C 2.84375 0 3.390625 -0.03125 3.703125 -0.03125 C 3.96875 -0.03125 4.234375 -0.015625 4.484375 0 L 4.484375 -0.390625 L 3.96875 -0.390625 Z M 2.734375 -1.671875 "/>
</g>
<g id="glyph-5-0">
<path d="M 3.640625 11.0625 L 2.015625 5.890625 L 0.96875 7 L 1.09375 7.140625 L 1.609375 6.609375 L 3.34375 12.125 C 3.625 12.125 3.640625 12.125 3.703125 11.9375 L 7.890625 -0.03125 C 7.9375 -0.125 7.9375 -0.140625 7.9375 -0.171875 C 7.9375 -0.28125 7.84375 -0.34375 7.765625 -0.34375 C 7.65625 -0.34375 7.625 -0.25 7.59375 -0.15625 Z M 3.640625 11.0625 "/>
</g>
<g id="glyph-6-0">
<path d="M 3.40625 -1.359375 C 3.28125 -1.484375 3.21875 -1.5625 3.09375 -1.671875 C 2.953125 -1.8125 2.46875 -2.1875 1.8125 -2.1875 C 1.140625 -2.1875 0.609375 -1.671875 0.609375 -1.0625 C 0.609375 -0.453125 1.125 0.046875 1.796875 0.046875 C 2.15625 0.046875 2.75 -0.078125 3.3125 -0.765625 C 3.4375 -0.640625 3.5 -0.5625 3.625 -0.453125 C 3.765625 -0.3125 4.25 0.046875 4.90625 0.046875 C 5.578125 0.046875 6.109375 -0.453125 6.109375 -1.0625 C 6.109375 -1.671875 5.59375 -2.1875 4.921875 -2.1875 C 4.5625 -2.1875 3.96875 -2.046875 3.40625 -1.359375 Z M 3.59375 -1.171875 C 3.90625 -1.59375 4.40625 -1.96875 4.96875 -1.96875 C 5.5 -1.96875 5.9375 -1.5625 5.9375 -1.0625 C 5.9375 -0.609375 5.515625 -0.25 5 -0.25 C 4.828125 -0.25 4.5625 -0.265625 4.140625 -0.625 C 3.9375 -0.796875 3.796875 -0.96875 3.59375 -1.171875 Z M 3.125 -0.96875 C 2.8125 -0.53125 2.3125 -0.15625 1.75 -0.15625 C 1.21875 -0.15625 0.78125 -0.5625 0.78125 -1.0625 C 0.78125 -1.53125 1.203125 -1.875 1.71875 -1.875 C 1.890625 -1.875 2.15625 -1.859375 2.578125 -1.5 C 2.78125 -1.34375 2.921875 -1.15625 3.125 -0.96875 Z M 3.125 -0.96875 "/>
</g>
</g>
</defs>
<path fill="none" stroke-width="0.3985" stroke-linecap="butt" stroke-linejoin="miter" stroke="rgb(54.998779%, 54.998779%, 54.998779%)" stroke-opacity="1" stroke-miterlimit="10" d="M -53.85695 0.000357799 L 48.955454 0.000357799 " transform="matrix(0.992516, 0, 0, -0.992516, 61.543735, 64.543324)"/>
<path fill-rule="nonzero" fill="rgb(54.998779%, 54.998779%, 54.998779%)" fill-opacity="1" stroke-width="0.3985" stroke-linecap="butt" stroke-linejoin="miter" stroke="rgb(54.998779%, 54.998779%, 54.998779%)" stroke-opacity="1" stroke-miterlimit="10" d="M 4.081199 0.000357799 C 3.581365 0.122365 1.37737 0.815049 -0.000126168 1.566768 L -0.000126168 -1.566053 C 1.37737 -0.814333 3.581365 -0.121649 4.081199 0.000357799 Z M 4.081199 0.000357799 " transform="matrix(0.992516, 0, 0, -0.992516, 110.132938, 64.543324)"/>
<g fill="rgb(0%, 0%, 0%)" fill-opacity="1">
<use xlink:href="#glyph-0-0" x="116.679991" y="65.538818"/>
</g>
<g fill="rgb(0%, 0%, 0%)" fill-opacity="1">
<use xlink:href="#glyph-1-0" x="121.164179" y="66.527364"/>
</g>
<path fill="none" stroke-width="0.3985" stroke-linecap="butt" stroke-linejoin="miter" stroke="rgb(54.998779%, 54.998779%, 54.998779%)" stroke-opacity="1" stroke-miterlimit="10" d="M -0.000771995 -53.859756 L -0.000771995 48.956584 " transform="matrix(0.992516, 0, 0, -0.992516, 61.543735, 64.543324)"/>
<path fill-rule="nonzero" fill="rgb(54.998779%, 54.998779%, 54.998779%)" fill-opacity="1" stroke-width="0.3985" stroke-linecap="butt" stroke-linejoin="miter" stroke="rgb(54.998779%, 54.998779%, 54.998779%)" stroke-opacity="1" stroke-miterlimit="10" d="M 4.082329 0.000771995 C 3.578559 0.122779 1.3785 0.815463 0.00100363 1.567182 L 0.00100363 -1.565638 C 1.3785 -0.813919 3.578559 -0.121235 4.082329 0.000771995 Z M 4.082329 0.000771995 " transform="matrix(0, -0.992516, -0.992516, 0, 61.543735, 15.954121)"/>
<g fill="rgb(0%, 0%, 0%)" fill-opacity="1">
<use xlink:href="#glyph-0-0" x="57.37219" y="8.418522"/>
</g>
<g fill="rgb(0%, 0%, 0%)" fill-opacity="1">
<use xlink:href="#glyph-1-1" x="61.856378" y="9.407068"/>
</g>
<path fill="none" stroke-width="1.19553" stroke-linecap="butt" stroke-linejoin="miter" stroke="rgb(0%, 44.706726%, 69.802856%)" stroke-opacity="1" stroke-dasharray="3.9851 2.98883" stroke-miterlimit="10" d="M -39.684478 -39.687284 L -39.684478 39.684064 L 39.68687 39.684064 L 39.68687 -39.687284 Z M -39.684478 -39.687284 " transform="matrix(0.992516, 0, 0, -0.992516, 61.543735, 64.543324)"/>
<path fill="none" stroke-width="1.19553" stroke-linecap="butt" stroke-linejoin="miter" stroke="rgb(0%, 44.706726%, 69.802856%)" stroke-opacity="1" stroke-miterlimit="10" d="M 39.68687 0.000357799 C 39.68687 21.918295 21.917165 39.684064 -0.000771995 39.684064 C -21.918709 39.684064 -39.684478 21.918295 -39.684478 0.000357799 C -39.684478 -21.917579 -21.918709 -39.687284 -0.000771995 -39.687284 C 21.917165 -39.687284 39.68687 -21.917579 39.68687 0.000357799 Z M 39.68687 0.000357799 " transform="matrix(0.992516, 0, 0, -0.992516, 61.543735, 64.543324)"/>
<path fill="none" stroke-width="1.19553" stroke-linecap="butt" stroke-linejoin="miter" stroke="rgb(0%, 44.706726%, 69.802856%)" stroke-opacity="1" stroke-dasharray="4.98138 1.99255 0.99628 1.99255" stroke-miterlimit="10" d="M 39.68687 0.000357799 L -0.000771995 39.684064 L -39.684478 0.000357799 L -0.000771995 -39.687284 Z M 39.68687 0.000357799 " transform="matrix(0.992516, 0, 0, -0.992516, 61.543735, 64.543324)"/>
<g fill="rgb(0%, 0%, 0%)" fill-opacity="1">
<use xlink:href="#glyph-2-0" x="102.61306" y="70.685014"/>
</g>
<g fill="rgb(0%, 0%, 0%)" fill-opacity="1">
<use xlink:href="#glyph-2-0" x="63.225057" y="23.473999"/>
</g>
<path fill="none" stroke-width="1.19553" stroke-linecap="butt" stroke-linejoin="miter" stroke="rgb(0%, 44.706726%, 69.802856%)" stroke-opacity="1" stroke-dasharray="4.98138 1.99255 0.99628 1.99255" stroke-miterlimit="10" d="M 87.875634 25.511593 L 113.386869 25.511593 " transform="matrix(0.992516, 0, 0, -0.992516, 61.543735, 64.543324)"/>
<g fill="rgb(0%, 0%, 0%)" fill-opacity="1">
<use xlink:href="#glyph-3-0" x="176.157513" y="40.952208"/>
</g>
<g fill="rgb(0%, 0%, 0%)" fill-opacity="1">
<use xlink:href="#glyph-4-0" x="180.20873" y="40.952208"/>
</g>
<g fill="rgb(0%, 0%, 0%)" fill-opacity="1">
<use xlink:href="#glyph-3-0" x="184.934113" y="40.952208"/>
</g>
<g fill="rgb(0%, 0%, 0%)" fill-opacity="1">
<use xlink:href="#glyph-1-0" x="188.985783" y="41.941747"/>
</g>
<g fill="rgb(0%, 0%, 0%)" fill-opacity="1">
<use xlink:href="#glyph-2-1" x="195.095713" y="40.952208"/>
</g>
<g fill="rgb(0%, 0%, 0%)" fill-opacity="1">
<use xlink:href="#glyph-3-1" x="203.415487" y="40.952208"/>
</g>
<g fill="rgb(0%, 0%, 0%)" fill-opacity="1">
<use xlink:href="#glyph-0-0" x="205.763989" y="40.952208"/>
</g>
<g fill="rgb(0%, 0%, 0%)" fill-opacity="1">
<use xlink:href="#glyph-1-0" x="210.249449" y="41.941747"/>
</g>
<g fill="rgb(0%, 0%, 0%)" fill-opacity="1">
<use xlink:href="#glyph-3-1" x="214.108352" y="40.952208"/>
</g>
<g fill="rgb(0%, 0%, 0%)" fill-opacity="1">
<use xlink:href="#glyph-2-2" x="218.256472" y="40.952208"/>
</g>
<g fill="rgb(0%, 0%, 0%)" fill-opacity="1">
<use xlink:href="#glyph-3-1" x="226.126341" y="40.952208"/>
</g>
<g fill="rgb(0%, 0%, 0%)" fill-opacity="1">
<use xlink:href="#glyph-0-0" x="228.474843" y="40.952208"/>
</g>
<g fill="rgb(0%, 0%, 0%)" fill-opacity="1">
<use xlink:href="#glyph-1-1" x="232.961196" y="41.941747"/>
</g>
<g fill="rgb(0%, 0%, 0%)" fill-opacity="1">
<use xlink:href="#glyph-3-1" x="236.820098" y="40.952208"/>
</g>
<g fill="rgb(0%, 0%, 0%)" fill-opacity="1">
<use xlink:href="#glyph-3-2" x="241.418123" y="40.952208"/>
</g>
<g fill="rgb(0%, 0%, 0%)" fill-opacity="1">
<use xlink:href="#glyph-2-0" x="249.847951" y="40.952208"/>
</g>
<path fill="none" stroke-width="1.19553" stroke-linecap="butt" stroke-linejoin="miter" stroke="rgb(0%, 44.706726%, 69.802856%)" stroke-opacity="1" stroke-miterlimit="10" d="M 87.875634 9.922268 L 113.386869 9.922268 " transform="matrix(0.992516, 0, 0, -0.992516, 61.543735, 64.543324)"/>
<g fill="rgb(0%, 0%, 0%)" fill-opacity="1">
<use xlink:href="#glyph-3-0" x="176.157513" y="56.954546"/>
</g>
<g fill="rgb(0%, 0%, 0%)" fill-opacity="1">
<use xlink:href="#glyph-4-0" x="180.20873" y="56.954546"/>
</g>
<g fill="rgb(0%, 0%, 0%)" fill-opacity="1">
<use xlink:href="#glyph-3-0" x="184.934113" y="56.954546"/>
</g>
<g fill="rgb(0%, 0%, 0%)" fill-opacity="1">
<use xlink:href="#glyph-1-1" x="188.985783" y="57.943092"/>
</g>
<g fill="rgb(0%, 0%, 0%)" fill-opacity="1">
<use xlink:href="#glyph-2-1" x="195.095713" y="56.954546"/>
</g>
<g fill="rgb(0%, 0%, 0%)" fill-opacity="1">
<use xlink:href="#glyph-5-0" x="203.416968" y="48.970746"/>
</g>
<path fill="none" stroke-width="0.339" stroke-linecap="butt" stroke-linejoin="miter" stroke="rgb(0%, 0%, 0%)" stroke-opacity="1" stroke-miterlimit="10" d="M 0.00105986 -0.00168956 L 26.555257 -0.00168956 " transform="matrix(0.992516, 0, 0, -0.992516, 211.190354, 48.803011)"/>
<g fill="rgb(0%, 0%, 0%)" fill-opacity="1">
<use xlink:href="#glyph-0-0" x="211.190354" y="56.954546"/>
</g>
<g fill="rgb(0%, 0%, 0%)" fill-opacity="1">
<use xlink:href="#glyph-1-1" x="215.674542" y="54.570522"/>
</g>
<g fill="rgb(0%, 0%, 0%)" fill-opacity="1">
<use xlink:href="#glyph-1-0" x="215.674542" y="59.101358"/>
</g>
<g fill="rgb(0%, 0%, 0%)" fill-opacity="1">
<use xlink:href="#glyph-2-2" x="221.333869" y="56.954546"/>
</g>
<g fill="rgb(0%, 0%, 0%)" fill-opacity="1">
<use xlink:href="#glyph-0-0" x="229.203739" y="56.954546"/>
</g>
<g fill="rgb(0%, 0%, 0%)" fill-opacity="1">
<use xlink:href="#glyph-1-1" x="233.68871" y="54.570522"/>
</g>
<g fill="rgb(0%, 0%, 0%)" fill-opacity="1">
<use xlink:href="#glyph-1-1" x="233.68871" y="59.101358"/>
</g>
<g fill="rgb(0%, 0%, 0%)" fill-opacity="1">
<use xlink:href="#glyph-3-2" x="239.798639" y="56.954546"/>
</g>
<g fill="rgb(0%, 0%, 0%)" fill-opacity="1">
<use xlink:href="#glyph-2-0" x="248.228467" y="56.954546"/>
</g>
<path fill="none" stroke-width="1.19553" stroke-linecap="butt" stroke-linejoin="miter" stroke="rgb(0%, 44.706726%, 69.802856%)" stroke-opacity="1" stroke-dasharray="3.9851 2.98883" stroke-miterlimit="10" d="M 87.875634 -5.670992 L 113.386869 -5.670992 " transform="matrix(0.992516, 0, 0, -0.992516, 61.543735, 64.543324)"/>
<g fill="rgb(0%, 0%, 0%)" fill-opacity="1">
<use xlink:href="#glyph-3-0" x="176.157513" y="71.900846"/>
</g>
<g fill="rgb(0%, 0%, 0%)" fill-opacity="1">
<use xlink:href="#glyph-4-0" x="180.20873" y="71.900846"/>
</g>
<g fill="rgb(0%, 0%, 0%)" fill-opacity="1">
<use xlink:href="#glyph-3-0" x="184.934113" y="71.900846"/>
</g>
<g fill="rgb(0%, 0%, 0%)" fill-opacity="1">
<use xlink:href="#glyph-6-0" x="188.985783" y="72.889392"/>
</g>
<g fill="rgb(0%, 0%, 0%)" fill-opacity="1">
<use xlink:href="#glyph-2-1" x="198.460342" y="71.900846"/>
</g>
<g fill="rgb(0%, 0%, 0%)" fill-opacity="1">
<use xlink:href="#glyph-2-3" x="206.780116" y="71.900846"/>
<use xlink:href="#glyph-2-4" x="213.276046" y="71.900846"/>
<use xlink:href="#glyph-2-5" x="217.217903" y="71.900846"/>
<use xlink:href="#glyph-2-6" x="221.372252" y="71.900846"/>
</g>
<g fill="rgb(0%, 0%, 0%)" fill-opacity="1">
<use xlink:href="#glyph-3-1" x="224.462059" y="71.900846"/>
</g>
<g fill="rgb(0%, 0%, 0%)" fill-opacity="1">
<use xlink:href="#glyph-0-0" x="226.810561" y="71.900846"/>
</g>
<g fill="rgb(0%, 0%, 0%)" fill-opacity="1">
<use xlink:href="#glyph-1-0" x="231.295754" y="72.889392"/>
</g>
<g fill="rgb(0%, 0%, 0%)" fill-opacity="1">
<use xlink:href="#glyph-3-1" x="235.154656" y="71.900846"/>
</g>
<g fill="rgb(0%, 0%, 0%)" fill-opacity="1">
<use xlink:href="#glyph-0-1" x="237.503158" y="71.900846"/>
</g>
<g fill="rgb(0%, 0%, 0%)" fill-opacity="1">
<use xlink:href="#glyph-3-1" x="241.201374" y="71.900846"/>
</g>
<g fill="rgb(0%, 0%, 0%)" fill-opacity="1">
<use xlink:href="#glyph-0-0" x="243.549876" y="71.900846"/>
</g>
<g fill="rgb(0%, 0%, 0%)" fill-opacity="1">
<use xlink:href="#glyph-1-1" x="248.034538" y="72.889392"/>
</g>
<g fill="rgb(0%, 0%, 0%)" fill-opacity="1">
<use xlink:href="#glyph-3-1" x="251.893441" y="71.900846"/>
</g>
<g fill="rgb(0%, 0%, 0%)" fill-opacity="1">
<use xlink:href="#glyph-2-7" x="254.241943" y="71.900846"/>
</g>
<g fill="rgb(0%, 0%, 0%)" fill-opacity="1">
<use xlink:href="#glyph-3-2" x="259.581272" y="71.900846"/>
</g>
<g fill="rgb(0%, 0%, 0%)" fill-opacity="1">
<use xlink:href="#glyph-2-0" x="268.011099" y="71.900846"/>
</g>
</svg>
