<?xml version="1.0" encoding="UTF-8"?>
<svg xmlns="http://www.w3.org/2000/svg" xmlns:xlink="http://www.w3.org/1999/xlink" width="181.54pt" height="121.996pt" viewBox="0 0 181.54 121.996">
<defs>
<g>
<g id="glyph-0-0">
<path d="M 1.734375 -0.734375 C 1.65625 -0.5 1.4375 -0.125 1.078125 -0.125 C 1.0625 -0.125 0.84375 -0.125 0.703125 -0.21875 C 0.984375 -0.3125 1.015625 -0.5625 1.015625 -0.609375 C 1.015625 -0.765625 0.890625 -0.859375 0.734375 -0.859375 C 0.53125 -0.859375 0.328125 -0.703125 0.328125 -0.4375 C 0.328125 -0.09375 0.71875 0.0625 1.0625 0.0625 C 1.390625 0.0625 1.671875 -0.125 1.84375 -0.421875 C 2.015625 -0.0625 2.390625 0.0625 2.671875 0.0625 C 3.46875 0.0625 3.890625 -0.796875 3.890625 -1 C 3.890625 -1.078125 3.796875 -1.078125 3.78125 -1.078125 C 3.6875 -1.078125 3.671875 -1.046875 3.65625 -0.96875 C 3.5 -0.484375 3.09375 -0.125 2.703125 -0.125 C 2.421875 -0.125 2.28125 -0.3125 2.28125 -0.578125 C 2.28125 -0.765625 2.4375 -1.390625 2.640625 -2.15625 C 2.78125 -2.703125 3.09375 -2.875 3.3125 -2.875 C 3.328125 -2.875 3.546875 -2.875 3.6875 -2.78125 C 3.46875 -2.71875 3.390625 -2.515625 3.390625 -2.390625 C 3.390625 -2.234375 3.5 -2.140625 3.671875 -2.140625 C 3.828125 -2.140625 4.046875 -2.265625 4.046875 -2.5625 C 4.046875 -2.953125 3.609375 -3.0625 3.328125 -3.0625 C 2.984375 -3.0625 2.703125 -2.84375 2.546875 -2.578125 C 2.421875 -2.859375 2.109375 -3.0625 1.71875 -3.0625 C 0.9375 -3.0625 0.5 -2.21875 0.5 -2 C 0.5 -1.90625 0.59375 -1.90625 0.609375 -1.90625 C 0.703125 -1.90625 0.703125 -1.9375 0.75 -2.03125 C 0.921875 -2.578125 1.359375 -2.875 1.703125 -2.875 C 1.921875 -2.875 2.109375 -2.75 2.109375 -2.40625 C 2.109375 -2.28125 2.03125 -1.921875 1.96875 -1.6875 Z M 1.734375 -0.734375 "/>
</g>
<g id="glyph-0-1">
<path d="M 0.515625 0.84375 C 0.46875 1.046875 0.453125 1.09375 0.1875 1.09375 C 0.09375 1.09375 0 1.09375 0 1.25 C 0 1.328125 0.0625 1.34375 0.09375 1.34375 C 0.265625 1.34375 0.5 1.328125 0.6875 1.328125 C 0.921875 1.328125 1.1875 1.34375 1.421875 1.34375 C 1.484375 1.34375 1.5625 1.328125 1.5625 1.203125 C 1.5625 1.09375 1.453125 1.09375 1.375 1.09375 C 1.21875 1.09375 1.03125 1.09375 1.03125 1.015625 C 1.03125 0.984375 1.078125 0.796875 1.109375 0.703125 C 1.203125 0.328125 1.296875 -0.046875 1.375 -0.34375 C 1.453125 -0.203125 1.671875 0.0625 2.09375 0.0625 C 2.9375 0.0625 3.875 -0.875 3.875 -1.90625 C 3.875 -2.71875 3.3125 -3.0625 2.828125 -3.0625 C 2.40625 -3.0625 2.03125 -2.78125 1.84375 -2.578125 C 1.71875 -2.96875 1.328125 -3.0625 1.125 -3.0625 C 0.859375 -3.0625 0.6875 -2.890625 0.578125 -2.703125 C 0.4375 -2.46875 0.328125 -2.046875 0.328125 -2 C 0.328125 -1.90625 0.421875 -1.90625 0.4375 -1.90625 C 0.546875 -1.90625 0.546875 -1.9375 0.59375 -2.125 C 0.703125 -2.53125 0.828125 -2.875 1.109375 -2.875 C 1.28125 -2.875 1.328125 -2.71875 1.328125 -2.53125 C 1.328125 -2.453125 1.328125 -2.359375 1.3125 -2.328125 Z M 1.828125 -2.234375 C 2.234375 -2.765625 2.59375 -2.875 2.8125 -2.875 C 3.078125 -2.875 3.3125 -2.671875 3.3125 -2.203125 C 3.3125 -1.90625 3.15625 -1.203125 2.953125 -0.796875 C 2.78125 -0.453125 2.4375 -0.125 2.09375 -0.125 C 1.59375 -0.125 1.46875 -0.65625 1.46875 -0.734375 C 1.46875 -0.765625 1.484375 -0.8125 1.484375 -0.828125 Z M 1.828125 -2.234375 "/>
</g>
<g id="glyph-0-2">
<path d="M 2.828125 -2.75 L 3.515625 -2.75 C 3.65625 -2.75 3.734375 -2.75 3.734375 -2.90625 C 3.734375 -3 3.65625 -3 3.53125 -3 L 2.875 -3 C 3.03125 -3.875 3.09375 -4.203125 3.15625 -4.40625 C 3.1875 -4.546875 3.34375 -4.703125 3.5 -4.703125 C 3.515625 -4.703125 3.703125 -4.703125 3.828125 -4.609375 C 3.546875 -4.53125 3.53125 -4.28125 3.53125 -4.234375 C 3.53125 -4.078125 3.640625 -3.984375 3.796875 -3.984375 C 3.984375 -3.984375 4.203125 -4.140625 4.203125 -4.40625 C 4.203125 -4.71875 3.859375 -4.890625 3.5 -4.890625 C 3.203125 -4.890625 2.859375 -4.71875 2.671875 -4.375 C 2.53125 -4.109375 2.46875 -3.796875 2.328125 -3 L 1.78125 -3 C 1.640625 -3 1.546875 -3 1.546875 -2.84375 C 1.546875 -2.75 1.640625 -2.75 1.765625 -2.75 L 2.28125 -2.75 C 2.28125 -2.703125 1.828125 -0.203125 1.671875 0.546875 C 1.640625 0.703125 1.515625 1.21875 1.1875 1.21875 C 1.171875 1.21875 1.015625 1.21875 0.875 1.140625 C 1.15625 1.046875 1.1875 0.796875 1.1875 0.765625 C 1.1875 0.609375 1.0625 0.5 0.90625 0.5 C 0.71875 0.5 0.5 0.65625 0.5 0.921875 C 0.5 1.234375 0.828125 1.421875 1.1875 1.421875 C 1.625 1.421875 1.9375 0.953125 2.015625 0.8125 C 2.265625 0.34375 2.421875 -0.515625 2.4375 -0.59375 Z M 2.828125 -2.75 "/>
</g>
<g id="glyph-1-0">
<path d="M 1.828125 -3.265625 C 1.84375 -3.328125 1.84375 -3.34375 1.84375 -3.359375 C 1.84375 -3.453125 1.78125 -3.453125 1.6875 -3.4375 L 1.078125 -3.40625 C 1 -3.390625 0.984375 -3.390625 0.96875 -3.375 C 0.9375 -3.34375 0.921875 -3.28125 0.921875 -3.25 C 0.921875 -3.171875 1.015625 -3.171875 1.078125 -3.171875 C 1.078125 -3.171875 1.171875 -3.171875 1.25 -3.15625 C 1.34375 -3.15625 1.34375 -3.140625 1.34375 -3.09375 C 1.34375 -3.078125 1.34375 -3.078125 1.328125 -2.984375 L 0.640625 -0.234375 C 0.609375 -0.15625 0.609375 -0.15625 0.609375 -0.125 C 0.609375 -0.015625 0.703125 0.046875 0.8125 0.046875 C 1 0.046875 1.046875 -0.125 1.0625 -0.203125 L 1.28125 -1.109375 C 1.421875 -1.109375 2.03125 -1.078125 2.03125 -0.71875 C 2.03125 -0.6875 2.03125 -0.671875 2.015625 -0.609375 C 2 -0.53125 2 -0.5 2 -0.484375 C 2 -0.125 2.328125 0.046875 2.609375 0.046875 C 3.125 0.046875 3.3125 -0.65625 3.3125 -0.71875 C 3.3125 -0.78125 3.234375 -0.78125 3.21875 -0.78125 C 3.125 -0.78125 3.125 -0.765625 3.09375 -0.671875 C 3.046875 -0.5 2.90625 -0.109375 2.640625 -0.109375 C 2.453125 -0.109375 2.421875 -0.296875 2.421875 -0.40625 C 2.421875 -0.40625 2.421875 -0.484375 2.4375 -0.5625 C 2.46875 -0.640625 2.46875 -0.703125 2.46875 -0.734375 C 2.46875 -1.171875 1.921875 -1.25 1.59375 -1.265625 C 1.734375 -1.34375 1.9375 -1.515625 2.015625 -1.59375 C 2.3125 -1.8125 2.578125 -2.03125 2.859375 -2.03125 C 2.96875 -2.03125 3 -2 3.03125 -1.96875 C 3.03125 -1.96875 3 -1.953125 3 -1.953125 C 2.765625 -1.875 2.765625 -1.671875 2.765625 -1.65625 C 2.765625 -1.5625 2.828125 -1.453125 2.984375 -1.453125 C 3.09375 -1.453125 3.296875 -1.53125 3.296875 -1.796875 C 3.296875 -2.046875 3.109375 -2.203125 2.875 -2.203125 C 2.53125 -2.203125 2.25 -1.96875 1.890625 -1.671875 C 1.703125 -1.53125 1.546875 -1.40625 1.34375 -1.328125 Z M 1.828125 -3.265625 "/>
</g>
<g id="glyph-2-0">
<path d="M 2.6875 -1.109375 L 4.421875 -1.109375 C 4.484375 -1.109375 4.625 -1.109375 4.625 -1.234375 C 4.625 -1.375 4.484375 -1.375 4.421875 -1.375 L 2.6875 -1.375 L 2.6875 -3.109375 C 2.6875 -3.1875 2.6875 -3.3125 2.546875 -3.3125 C 2.421875 -3.3125 2.421875 -3.1875 2.421875 -3.109375 L 2.421875 -1.375 L 0.6875 -1.375 C 0.609375 -1.375 0.484375 -1.375 0.484375 -1.234375 C 0.484375 -1.109375 0.609375 -1.109375 0.6875 -1.109375 L 2.421875 -1.109375 L 2.421875 0.625 C 2.421875 0.703125 2.421875 0.828125 2.546875 0.828125 C 2.6875 0.828125 2.6875 0.703125 2.6875 0.625 Z M 2.6875 -1.109375 "/>
</g>
<g id="glyph-2-1">
<path d="M 1.984375 -3.15625 C 1.984375 -3.3125 1.96875 -3.3125 1.796875 -3.3125 C 1.453125 -2.984375 0.890625 -2.984375 0.796875 -2.984375 L 0.703125 -2.984375 L 0.703125 -2.765625 L 0.796875 -2.765625 C 0.90625 -2.765625 1.234375 -2.78125 1.515625 -2.90625 L 1.515625 -0.421875 C 1.515625 -0.265625 1.515625 -0.21875 1 -0.21875 L 0.75 -0.21875 L 0.75 0 C 1.015625 -0.015625 1.453125 -0.015625 1.75 -0.015625 C 2.03125 -0.015625 2.484375 -0.015625 2.75 0 L 2.75 -0.21875 L 2.5 -0.21875 C 1.984375 -0.21875 1.984375 -0.265625 1.984375 -0.421875 Z M 1.984375 -3.15625 "/>
</g>
<g id="glyph-3-0">
<path d="M 1.90625 -1.375 C 1.921875 -1.46875 2 -2.109375 2 -2.15625 C 2 -2.234375 1.921875 -2.3125 1.828125 -2.3125 C 1.71875 -2.3125 1.65625 -2.234375 1.65625 -2.15625 C 1.65625 -2.109375 1.734375 -1.46875 1.75 -1.375 L 0.96875 -1.828125 C 0.921875 -1.859375 0.90625 -1.875 0.859375 -1.875 C 0.78125 -1.875 0.6875 -1.796875 0.6875 -1.6875 C 0.6875 -1.609375 0.734375 -1.5625 0.796875 -1.546875 C 1.0625 -1.4375 1.34375 -1.34375 1.625 -1.234375 C 1.34375 -1.140625 0.890625 -0.96875 0.8125 -0.9375 C 0.78125 -0.921875 0.6875 -0.890625 0.6875 -0.78125 C 0.6875 -0.671875 0.78125 -0.59375 0.859375 -0.59375 C 0.921875 -0.59375 1.0625 -0.703125 1.75 -1.109375 C 1.734375 -1 1.65625 -0.375 1.65625 -0.328125 C 1.65625 -0.25 1.71875 -0.171875 1.828125 -0.171875 C 1.921875 -0.171875 2 -0.234375 2 -0.328125 C 2 -0.375 1.921875 -1.015625 1.90625 -1.109375 L 2.703125 -0.640625 C 2.734375 -0.609375 2.75 -0.59375 2.796875 -0.59375 C 2.875 -0.59375 2.96875 -0.671875 2.96875 -0.78125 C 2.96875 -0.859375 2.921875 -0.921875 2.859375 -0.9375 C 2.59375 -1.046875 2.3125 -1.140625 2.03125 -1.234375 C 2.3125 -1.34375 2.765625 -1.5 2.84375 -1.546875 C 2.875 -1.5625 2.96875 -1.578125 2.96875 -1.6875 C 2.96875 -1.796875 2.875 -1.875 2.796875 -1.875 C 2.75 -1.875 2.734375 -1.859375 2.6875 -1.828125 Z M 1.90625 -1.375 "/>
</g>
<g id="glyph-4-0">
<path d="M 2.46875 -5.21875 C 1.140625 -4.28125 0.796875 -2.8125 0.796875 -1.75 C 0.796875 -0.765625 1.09375 0.765625 2.46875 1.734375 C 2.53125 1.734375 2.609375 1.734375 2.609375 1.640625 C 2.609375 1.609375 2.59375 1.59375 2.53125 1.546875 C 1.609375 0.703125 1.265625 -0.46875 1.265625 -1.734375 C 1.265625 -3.609375 1.984375 -4.53125 2.5625 -5.046875 C 2.59375 -5.078125 2.609375 -5.09375 2.609375 -5.125 C 2.609375 -5.21875 2.53125 -5.21875 2.46875 -5.21875 Z M 2.46875 -5.21875 "/>
</g>
<g id="glyph-4-1">
<path d="M 0.625 -5.21875 C 0.578125 -5.21875 0.5 -5.21875 0.5 -5.125 C 0.5 -5.09375 0.515625 -5.078125 0.5625 -5.03125 C 1.15625 -4.484375 1.828125 -3.546875 1.828125 -1.75 C 1.828125 -0.296875 1.375 0.8125 0.625 1.484375 C 0.5 1.609375 0.5 1.609375 0.5 1.640625 C 0.5 1.6875 0.515625 1.734375 0.578125 1.734375 C 0.671875 1.734375 1.328125 1.265625 1.78125 0.40625 C 2.09375 -0.171875 2.296875 -0.921875 2.296875 -1.734375 C 2.296875 -2.71875 2 -4.234375 0.625 -5.21875 Z M 0.625 -5.21875 "/>
</g>
<g id="glyph-4-2">
<path d="M 5.71875 -2.109375 C 5.71875 -2.71875 5.421875 -3.0625 4.671875 -3.0625 C 4.125 -3.0625 3.75 -2.765625 3.5625 -2.421875 C 3.421875 -2.90625 3.046875 -3.0625 2.53125 -3.0625 C 1.96875 -3.0625 1.59375 -2.75 1.40625 -2.390625 L 1.390625 -2.390625 L 1.390625 -3.0625 L 0.375 -2.984375 L 0.375 -2.734375 C 0.84375 -2.734375 0.890625 -2.6875 0.890625 -2.34375 L 0.890625 -0.546875 C 0.890625 -0.25 0.828125 -0.25 0.375 -0.25 L 0.375 0 C 0.390625 0 0.875 -0.03125 1.171875 -0.03125 C 1.421875 -0.03125 1.90625 0 1.96875 0 L 1.96875 -0.25 C 1.515625 -0.25 1.453125 -0.25 1.453125 -0.546875 L 1.453125 -1.796875 C 1.453125 -2.53125 2.015625 -2.875 2.484375 -2.875 C 2.96875 -2.875 3.03125 -2.484375 3.03125 -2.140625 L 3.03125 -0.546875 C 3.03125 -0.25 2.96875 -0.25 2.515625 -0.25 L 2.515625 0 C 2.53125 0 3.015625 -0.03125 3.296875 -0.03125 C 3.5625 -0.03125 4.046875 0 4.109375 0 L 4.109375 -0.25 C 3.65625 -0.25 3.578125 -0.25 3.578125 -0.546875 L 3.578125 -1.796875 C 3.578125 -2.53125 4.15625 -2.875 4.609375 -2.875 C 5.109375 -2.875 5.171875 -2.484375 5.171875 -2.140625 L 5.171875 -0.546875 C 5.171875 -0.25 5.09375 -0.25 4.640625 -0.25 L 4.640625 0 C 4.65625 0 5.140625 -0.03125 5.4375 -0.03125 C 5.6875 -0.03125 6.171875 0 6.234375 0 L 6.234375 -0.25 C 5.78125 -0.25 5.71875 -0.25 5.71875 -0.546875 Z M 5.71875 -2.109375 "/>
</g>
<g id="glyph-4-3">
<path d="M 3.671875 -1.484375 C 3.671875 -2.34375 2.9375 -3.09375 1.96875 -3.09375 C 1.015625 -3.09375 0.265625 -2.34375 0.265625 -1.484375 C 0.265625 -0.625 1.03125 0.0625 1.96875 0.0625 C 2.90625 0.0625 3.671875 -0.625 3.671875 -1.484375 Z M 1.96875 -0.15625 C 1.71875 -0.15625 1.34375 -0.234375 1.109375 -0.578125 C 0.921875 -0.859375 0.90625 -1.21875 0.90625 -1.546875 C 0.90625 -1.84375 0.90625 -2.25 1.15625 -2.546875 C 1.328125 -2.75 1.625 -2.90625 1.96875 -2.90625 C 2.390625 -2.90625 2.671875 -2.71875 2.828125 -2.5 C 3.03125 -2.21875 3.046875 -1.875 3.046875 -1.546875 C 3.046875 -1.203125 3.03125 -0.84375 2.828125 -0.5625 C 2.640625 -0.296875 2.3125 -0.15625 1.96875 -0.15625 Z M 1.96875 -0.15625 "/>
</g>
<g id="glyph-4-4">
<path d="M 2.46875 -4.75 L 2.46875 -4.5 C 2.9375 -4.5 3 -4.453125 3 -4.109375 L 3 -2.671875 C 2.734375 -2.921875 2.40625 -3.0625 2.015625 -3.0625 C 1.09375 -3.0625 0.3125 -2.375 0.3125 -1.5 C 0.3125 -0.625 1.0625 0.0625 1.9375 0.0625 C 2.515625 0.0625 2.84375 -0.234375 2.96875 -0.359375 L 2.96875 0.0625 L 4.046875 0 L 4.046875 -0.25 C 3.578125 -0.25 3.515625 -0.296875 3.515625 -0.640625 L 3.515625 -4.828125 Z M 2.96875 -0.734375 C 2.78125 -0.40625 2.4375 -0.125 1.984375 -0.125 C 1.59375 -0.125 1.3125 -0.359375 1.171875 -0.5625 C 1.03125 -0.765625 0.953125 -1.046875 0.953125 -1.484375 C 0.953125 -1.640625 0.953125 -2.171875 1.234375 -2.5 C 1.515625 -2.8125 1.859375 -2.875 2.0625 -2.875 C 2.390625 -2.875 2.6875 -2.71875 2.890625 -2.46875 C 2.96875 -2.359375 2.96875 -2.34375 2.96875 -2.21875 Z M 2.96875 -0.734375 "/>
</g>
<g id="glyph-4-5">
<path d="M 3.0625 -1.578125 C 3.203125 -1.578125 3.25 -1.578125 3.25 -1.734375 C 3.25 -2.34375 2.90625 -3.09375 1.875 -3.09375 C 0.96875 -3.09375 0.265625 -2.375 0.265625 -1.515625 C 0.265625 -0.640625 1.046875 0.0625 1.96875 0.0625 C 2.90625 0.0625 3.25 -0.6875 3.25 -0.828125 C 3.25 -0.859375 3.234375 -0.9375 3.140625 -0.9375 C 3.046875 -0.9375 3.03125 -0.890625 3.015625 -0.828125 C 2.796875 -0.25 2.265625 -0.15625 2.015625 -0.15625 C 1.6875 -0.15625 1.375 -0.296875 1.171875 -0.5625 C 0.90625 -0.890625 0.90625 -1.3125 0.90625 -1.578125 Z M 0.90625 -1.765625 C 0.984375 -2.75 1.609375 -2.90625 1.875 -2.90625 C 2.734375 -2.90625 2.765625 -1.9375 2.765625 -1.765625 Z M 0.90625 -1.765625 "/>
</g>
<g id="glyph-4-6">
<path d="M 1.4375 -4.828125 L 0.390625 -4.75 L 0.390625 -4.5 C 0.859375 -4.5 0.90625 -4.453125 0.90625 -4.109375 L 0.90625 -0.546875 C 0.90625 -0.25 0.84375 -0.25 0.390625 -0.25 L 0.390625 0 C 0.40625 0 0.890625 -0.03125 1.171875 -0.03125 C 1.4375 -0.03125 1.6875 -0.015625 1.953125 0 L 1.953125 -0.25 C 1.5 -0.25 1.4375 -0.25 1.4375 -0.546875 Z M 1.4375 -4.828125 "/>
</g>
</g>
<clipPath id="clip-0">
<path clip-rule="nonzero" d="M 3 0.152344 L 18 0.152344 L 18 16 L 3 16 Z M 3 0.152344 "/>
</clipPath>
<clipPath id="clip-1">
<path clip-rule="nonzero" d="M 0 0.152344 L 172 0.152344 L 172 113 L 0 113 Z M 0 0.152344 "/>
</clipPath>
<clipPath id="clip-2">
<path clip-rule="nonzero" d="M 40 0.152344 L 168 0.152344 L 168 97 L 40 97 Z M 40 0.152344 "/>
</clipPath>
</defs>
<path fill="none" stroke-width="0.3985" stroke-linecap="butt" stroke-linejoin="miter" stroke="rgb(59.999084%, 59.999084%, 59.999084%)" stroke-opacity="1" stroke-miterlimit="10" d="M -9.355661 0.000933844 L 144.200417 0.000933844 " transform="matrix(0.997473, 0, 0, -0.997473, 16.816389, 108.235306)"/>
<path fill-rule="nonzero" fill="rgb(59.999084%, 59.999084%, 59.999084%)" fill-opacity="1" stroke-width="0.3985" stroke-linecap="butt" stroke-linejoin="miter" stroke="rgb(59.999084%, 59.999084%, 59.999084%)" stroke-opacity="1" stroke-miterlimit="10" d="M 4.648395 0.000933844 C 4.076637 0.137999 1.566386 0.925145 -0.0000729982 1.778865 L -0.0000729982 -1.780913 C 1.566386 -0.923277 4.076637 -0.140047 4.648395 0.000933844 Z M 4.648395 0.000933844 " transform="matrix(0.997473, 0, 0, -0.997473, 160.652417, 108.235306)"/>
<g fill="rgb(59.999084%, 59.999084%, 59.999084%)" fill-opacity="1">
<use xlink:href="#glyph-0-0" x="167.795826" y="109.732513"/>
</g>
<path fill="none" stroke-width="0.3985" stroke-linecap="butt" stroke-linejoin="miter" stroke="rgb(59.999084%, 59.999084%, 59.999084%)" stroke-opacity="1" stroke-miterlimit="10" d="M -6.238407 -4.252003 L -6.238407 98.703527 " transform="matrix(0.997473, 0, 0, -0.997473, 16.816389, 108.235306)"/>
<path fill-rule="nonzero" fill="rgb(59.999084%, 59.999084%, 59.999084%)" fill-opacity="1" d="M 10.59375 5.144531 C 10.457031 5.714844 9.671875 8.214844 8.820312 9.78125 L 12.371094 9.78125 C 11.515625 8.214844 10.734375 5.714844 10.59375 5.144531 Z M 10.59375 5.144531 "/>
<g clip-path="url(#clip-0)">
<path fill="none" stroke-width="0.3985" stroke-linecap="butt" stroke-linejoin="miter" stroke="rgb(59.999084%, 59.999084%, 59.999084%)" stroke-opacity="1" stroke-miterlimit="10" d="M 4.647725 0.00175674 C 4.075967 0.138822 1.569632 0.925968 -0.000743064 1.779688 L -0.000743064 -1.780091 C 1.569632 -0.922454 4.075967 -0.139225 4.647725 0.00175674 Z M 4.647725 0.00175674 " transform="matrix(0, -0.997473, -0.997473, 0, 10.595502, 9.780509)"/>
</g>
<g clip-path="url(#clip-1)">
<path fill="none" stroke-width="1.19553" stroke-linecap="butt" stroke-linejoin="miter" stroke="rgb(0%, 44.706726%, 69.802856%)" stroke-opacity="1" stroke-miterlimit="10" d="M -3.117237 22.354306 L -1.327557 21.71989 L 0.466039 21.101139 L 2.255718 20.505885 L 4.049314 19.926295 L 5.838994 19.366285 L 7.632589 18.821941 L 9.426185 18.301093 L 11.215865 17.799826 L 13.00946 17.322056 L 14.79914 16.863867 L 16.592736 16.425258 L 18.382415 16.014063 L 20.176011 15.622448 L 21.965691 15.258246 L 23.759287 14.917541 L 25.552882 14.60425 L 27.342562 14.314455 L 29.136158 14.055989 L 30.925837 13.82102 L 32.719433 13.61738 L 34.509113 13.441154 L 36.302709 13.300172 L 38.092388 13.186604 L 39.885984 13.104365 L 41.675664 13.057371 L 43.469259 13.045623 L 45.262855 13.06912 L 47.052535 13.127862 L 48.84613 13.221849 L 50.63581 13.358915 L 52.429406 13.531225 L 54.219085 13.746613 L 56.012681 14.005079 L 57.802361 14.302706 L 59.595957 14.647327 L 61.385636 15.035026 L 63.179232 15.473634 L 64.972828 15.959237 L 66.762507 16.491833 L 68.556103 17.079255 L 70.345783 17.717587 L 72.139378 18.410745 L 73.929058 19.15873 L 75.722654 19.965456 L 77.512333 20.830925 L 79.305929 21.755136 L 81.099525 22.745921 L 82.889205 23.799365 L 84.6828 24.915467 L 86.47248 26.105976 L 88.266076 27.36306 L 90.055755 28.690634 L 91.849351 30.096531 L 93.639031 31.576835 L 95.432627 33.139378 L 97.222306 34.776328 L 99.015902 36.503349 L 100.809498 38.312609 L 102.599177 40.211941 L 104.392773 42.201344 L 106.182453 44.284735 L 107.976048 46.462113 L 109.765728 48.745227 L 111.559324 51.126245 L 113.349003 53.609083 L 115.142599 56.201573 L 116.936195 58.907631 L 118.725875 61.727258 L 120.51947 64.664369 L 122.30915 67.72288 L 124.102746 70.906709 L 125.892425 74.215854 L 127.686021 77.662064 L 129.475701 81.241423 L 131.269296 84.961764 L 133.058976 88.823086 L 134.852572 92.837137 L 136.646168 97.000003 L 138.435847 101.32343 " transform="matrix(0.997473, 0, 0, -0.997473, 16.816389, 108.235306)"/>
</g>
<g clip-path="url(#clip-2)">
<path fill="none" stroke-width="0.79701" stroke-linecap="butt" stroke-linejoin="miter" stroke="rgb(0%, 0%, 0%)" stroke-opacity="1" stroke-dasharray="2.98883 2.98883" stroke-miterlimit="10" d="M 34.924224 44.19858 L 36.698239 42.162183 L 38.476171 40.231522 L 40.250186 38.402681 L 42.024201 36.675659 L 43.802132 35.054374 L 45.576147 33.538825 L 47.354078 32.129012 L 49.128093 30.821018 L 50.902108 29.614845 L 52.680039 28.518323 L 54.454054 27.523622 L 56.231985 26.63074 L 58.006 25.84751 L 59.783932 25.166101 L 61.557947 24.586511 L 63.331962 24.112657 L 65.109893 23.744539 L 66.883908 23.478241 L 68.661839 23.317679 L 70.435854 23.262853 L 72.209869 23.309846 L 73.9878 23.462576 L 75.761815 23.717126 L 77.539746 24.081328 L 79.313762 24.543433 L 81.091693 25.115191 L 82.865708 25.788768 L 84.639723 26.564165 L 86.417654 27.449215 L 88.191669 28.432168 L 89.9696 29.524773 L 91.743615 30.719198 L 93.521546 32.01936 L 95.295561 33.421341 L 97.069576 34.929057 L 98.847508 36.54251 L 100.621523 38.257783 L 102.399454 40.078792 L 104.173469 42.001621 L 105.947484 44.034101 L 107.725415 46.164486 L 109.49943 48.404523 L 111.277361 50.746379 L 113.051376 53.190055 L 114.829307 55.743384 L 116.603322 58.394616 L 118.377337 61.1555 L 120.155269 64.018204 L 121.929284 66.986645 L 123.707215 70.056905 L 125.48123 73.232901 L 127.255245 76.514633 L 129.033176 79.898184 L 130.807191 83.387472 L 132.585122 86.97858 L 134.359137 90.67934 L 136.137068 94.478003 L 137.911083 98.386319 L 139.685098 102.396454 " transform="matrix(0.997473, 0, 0, -0.997473, 16.816389, 108.235306)"/>
</g>
<path fill="none" stroke-width="0.3985" stroke-linecap="butt" stroke-linejoin="miter" stroke="rgb(0%, 0%, 0%)" stroke-opacity="1" stroke-dasharray="0.3985 0.99628" stroke-miterlimit="10" d="M 112.252482 0.000933844 L 112.252482 52.077869 " transform="matrix(0.997473, 0, 0, -0.997473, 16.816389, 108.235306)"/>
<path fill="none" stroke-width="0.3985" stroke-linecap="butt" stroke-linejoin="miter" stroke="rgb(0%, 0%, 0%)" stroke-opacity="1" stroke-dasharray="0.3985 0.99628" stroke-miterlimit="10" d="M 70.506345 0.000933844 L 70.506345 23.262853 " transform="matrix(0.997473, 0, 0, -0.997473, 16.816389, 108.235306)"/>
<path fill="none" stroke-width="0.3985" stroke-linecap="butt" stroke-linejoin="miter" stroke="rgb(0%, 0%, 0%)" stroke-opacity="1" stroke-dasharray="0.3985 0.99628" stroke-miterlimit="10" d="M 43.222542 0.000933844 L 43.222542 13.045623 " transform="matrix(0.997473, 0, 0, -0.997473, 16.816389, 108.235306)"/>
<path fill-rule="nonzero" fill="rgb(0%, 0%, 0%)" fill-opacity="1" stroke-width="0.3985" stroke-linecap="butt" stroke-linejoin="miter" stroke="rgb(0%, 0%, 0%)" stroke-opacity="1" stroke-miterlimit="10" d="M 113.74845 52.077869 C 113.74845 52.904177 113.078789 53.573838 112.252482 53.573838 C 111.426175 53.573838 110.76043 52.904177 110.76043 52.077869 C 110.76043 51.251562 111.426175 50.585817 112.252482 50.585817 C 113.078789 50.585817 113.74845 51.251562 113.74845 52.077869 Z M 113.74845 52.077869 " transform="matrix(0.997473, 0, 0, -0.997473, 16.816389, 108.235306)"/>
<path fill-rule="nonzero" fill="rgb(100%, 100%, 100%)" fill-opacity="1" stroke-width="0.3985" stroke-linecap="butt" stroke-linejoin="miter" stroke="rgb(0%, 0%, 0%)" stroke-opacity="1" stroke-miterlimit="10" d="M 72.100217 23.262853 C 72.100217 24.143986 71.387478 24.856725 70.506345 24.856725 C 69.625211 24.856725 68.912473 24.143986 68.912473 23.262853 C 68.912473 22.381719 69.625211 21.66898 70.506345 21.66898 C 71.387478 21.66898 72.100217 22.381719 72.100217 23.262853 Z M 72.100217 23.262853 " transform="matrix(0.997473, 0, 0, -0.997473, 16.816389, 108.235306)"/>
<path fill-rule="nonzero" fill="rgb(0%, 0%, 0%)" fill-opacity="1" stroke-width="0.3985" stroke-linecap="butt" stroke-linejoin="miter" stroke="rgb(0%, 0%, 0%)" stroke-opacity="1" stroke-miterlimit="10" d="M 72.002313 17.780246 C 72.002313 18.606553 71.332652 19.276214 70.506345 19.276214 C 69.683954 19.276214 69.014292 18.606553 69.014292 17.780246 C 69.014292 16.953938 69.683954 16.284277 70.506345 16.284277 C 71.332652 16.284277 72.002313 16.953938 72.002313 17.780246 Z M 72.002313 17.780246 " transform="matrix(0.997473, 0, 0, -0.997473, 16.816389, 108.235306)"/>
<path fill-rule="nonzero" fill="rgb(0%, 0%, 0%)" fill-opacity="1" stroke-width="0.3985" stroke-linecap="butt" stroke-linejoin="miter" stroke="rgb(0%, 0%, 0%)" stroke-opacity="1" stroke-miterlimit="10" d="M 44.71851 13.045623 C 44.71851 13.87193 44.048849 14.541591 43.222542 14.541591 C 42.400151 14.541591 41.73049 13.87193 41.73049 13.045623 C 41.73049 12.223232 42.400151 11.55357 43.222542 11.55357 C 44.048849 11.55357 44.71851 12.223232 44.71851 13.045623 Z M 44.71851 13.045623 " transform="matrix(0.997473, 0, 0, -0.997473, 16.816389, 108.235306)"/>
<path fill="none" stroke-width="0.79701" stroke-linecap="butt" stroke-linejoin="miter" stroke="rgb(0%, 0%, 0%)" stroke-opacity="1" stroke-miterlimit="10" d="M 112.252482 6.803283 L 75.77748 6.803283 " transform="matrix(0.997473, 0, 0, -0.997473, 16.816389, 108.235306)"/>
<path fill-rule="nonzero" fill="rgb(0%, 0%, 0%)" fill-opacity="1" stroke-width="0.79701" stroke-linecap="butt" stroke-linejoin="miter" stroke="rgb(0%, 0%, 0%)" stroke-opacity="1" stroke-miterlimit="10" d="M 3.627193 0.000097156 C 3.180752 0.109749 1.222678 0.744165 0.000840092 1.433407 L 0.000840092 -1.433213 C 1.222678 -0.743971 3.180752 -0.113471 3.627193 0.000097156 Z M 3.627193 0.000097156 " transform="matrix(-0.997473, 0, 0, 0.997473, 92.403182, 101.449122)"/>
<g fill="rgb(0%, 0%, 0%)" fill-opacity="1">
<use xlink:href="#glyph-0-1" x="105.897668" y="98.40721"/>
</g>
<g fill="rgb(0%, 0%, 0%)" fill-opacity="1">
<use xlink:href="#glyph-0-0" x="124.359887" y="116.373685"/>
</g>
<g fill="rgb(0%, 0%, 0%)" fill-opacity="1">
<use xlink:href="#glyph-1-0" x="128.865471" y="113.375282"/>
</g>
<g fill="rgb(0%, 0%, 0%)" fill-opacity="1">
<use xlink:href="#glyph-0-0" x="78.475154" y="116.373685"/>
</g>
<g fill="rgb(0%, 0%, 0%)" fill-opacity="1">
<use xlink:href="#glyph-1-0" x="82.981735" y="113.375282"/>
</g>
<g fill="rgb(0%, 0%, 0%)" fill-opacity="1">
<use xlink:href="#glyph-2-0" x="86.828013" y="113.375282"/>
<use xlink:href="#glyph-2-1" x="91.934853" y="113.375282"/>
</g>
<g fill="rgb(0%, 0%, 0%)" fill-opacity="1">
<use xlink:href="#glyph-0-0" x="55.600116" y="115.235569"/>
</g>
<g fill="rgb(0%, 0%, 0%)" fill-opacity="1">
<use xlink:href="#glyph-3-0" x="60.106697" y="112.236169"/>
</g>
<g fill="rgb(0%, 44.706726%, 69.802856%)" fill-opacity="1">
<use xlink:href="#glyph-0-2" x="19.749956" y="83.176802"/>
</g>
<g fill="rgb(0%, 44.706726%, 69.802856%)" fill-opacity="1">
<use xlink:href="#glyph-4-0" x="24.404332" y="83.176802"/>
</g>
<g fill="rgb(0%, 44.706726%, 69.802856%)" fill-opacity="1">
<use xlink:href="#glyph-0-0" x="27.509568" y="83.176802"/>
</g>
<g fill="rgb(0%, 44.706726%, 69.802856%)" fill-opacity="1">
<use xlink:href="#glyph-4-1" x="32.015778" y="83.176802"/>
</g>
<g fill="rgb(0%, 0%, 0%)" fill-opacity="1">
<use xlink:href="#glyph-4-2" x="57.072386" y="56.575207"/>
<use xlink:href="#glyph-4-3" x="63.600755" y="56.575207"/>
</g>
<g fill="rgb(0%, 0%, 0%)" fill-opacity="1">
<use xlink:href="#glyph-4-4" x="67.777937" y="56.575207"/>
<use xlink:href="#glyph-4-5" x="72.167283" y="56.575207"/>
<use xlink:href="#glyph-4-6" x="75.700324" y="56.575207"/>
</g>
</svg>
